<?xml version="1.0" encoding="UTF-8"?>
<svg width="472px" height="106px" viewBox="0 0 472 106" version="1.1" xmlns="http://www.w3.org/2000/svg" xmlns:xlink="http://www.w3.org/1999/xlink">
    <!-- Generator: Sketch 41 (35326) - http://www.bohemiancoding.com/sketch -->
    <title>Group 6</title>
    <desc>Created with Sketch.</desc>
    <defs>
        <polygon id="path-1" points="26.3588 0.582 0.8748 0.582 0.8748 32.5037 26.3588 32.5037 26.3588 0.582"></polygon>
        <polygon id="path-3" points="0.0239 12 7.5549 12 7.5549 0.8252 0.0239 0.8252"></polygon>
    </defs>
    <g id="Symbols" stroke="none" stroke-width="1" fill="none" fill-rule="evenodd">
        <g id="logo-/-logo" transform="translate(0.000000, -1.000000)">
            <g id="Group-6">
                <g id="Group-3" transform="translate(111.000000, 0.000000)">
                    <polygon id="Fill-1" fill="#FFFFFF" points="32.4403 28.959451 41.5033 2.02545101 44.3863 2.02545101 33.7063 32.873451 31.0093 32.873451 22.2333 6.26345101 13.4563 32.873451 10.7603 32.873451 0.0823 2.02545101 2.9613 2.02545101 12.0263 28.959451 20.8033 2.02345101 23.6653 2.02345101"></polygon>
                    <polygon id="Fill-2" fill="#FFFFFF" points="58.858 32.872451 61.479 32.872451 61.479 2.02545101 58.858 2.02545101"></polygon>
                    <polygon id="Fill-3" fill="#FFFFFF" points="97.3143 30.759251 97.3143 32.873251 78.6313 32.873251 78.6313 2.02625101 81.2523 2.02625101 81.2523 30.759251"></polygon>
                    <polygon id="Fill-4" fill="#FFFFFF" points="130.37 30.759251 130.37 32.873251 111.687 32.873251 111.687 2.02625101 114.308 2.02625101 114.308 30.759251"></polygon>
                    <polygon id="Fill-5" fill="#FFFFFF" points="144.743 32.872451 147.364 32.872451 147.364 2.02545101 144.743 2.02545101"></polygon>
                    <path d="M183.0917,22.159651 L175.9417,4.84065101 L168.7897,22.159651 L183.0917,22.159651 Z M187.4177,32.872651 L183.9137,24.357651 L167.9677,24.357651 L164.4637,32.872651 L161.7107,32.872651 L174.5497,2.02565101 L177.3317,2.02565101 L190.1717,32.872651 L187.4177,32.872651 Z" id="Fill-6" fill="#FFFFFF"></path>
                    <polygon id="Fill-7" fill="#FFFFFF" points="232.453 32.872951 232.453 7.09195101 221.008 32.867951 218.469 32.867951 207.021 7.09195101 207.021 32.872951 204.4 32.872951 204.4 2.02595101 207.641 2.02595101 219.737 29.872951 231.833 2.02595101 235.075 2.02595101 235.075 32.872951"></polygon>
                    <g id="Group-10" transform="translate(249.000000, 0.898451)">
                        <mask id="mask-2" fill="white">
                            <use xlink:href="#path-1"></use>
                        </mask>
                        <g id="Clip-9"></g>
                        <path d="M2.4598,26.4887 C4.8018,28.8817 9.3818,30.2797 13.7978,30.2797 C18.7508,30.2797 23.5898,28.4357 23.5898,23.9807 C23.5898,18.7437 18.6088,18.3427 12.5988,17.2177 C7.1988,16.2097 2.1678,14.8317 2.1678,9.1567 C2.1678,3.2867 8.4178,0.5817 14.8608,0.5817 C18.5258,0.5817 22.2848,1.4587 25.0378,3.1237 L23.5018,5.0067 C21.0968,3.5117 17.8428,2.7327 14.5688,2.7327 C9.5138,2.7327 4.8348,4.7737 4.8348,9.0347 C4.8348,13.2477 9.0638,14.2387 13.3508,15.0497 C20.0138,16.3177 26.3588,17.0997 26.3588,23.9747 C26.3588,29.8857 20.0298,32.5037 13.7268,32.5037 C8.8568,32.5037 3.5898,30.9727 0.8748,28.2707 L2.4598,26.4887 Z" id="Fill-8" fill="#FFFFFF" mask="url(#mask-2)"></path>
                    </g>
                    <path d="M304.576,3.72405101 C296.425,3.72405101 291.709,9.31805101 291.709,17.430051 C291.709,25.635051 296.571,31.177051 304.577,31.177051 C312.805,31.177051 317.486,25.651051 317.486,17.430051 C317.486,9.31605101 312.722,3.72405101 304.577,3.72405101 L304.576,3.72405101 Z M320.107,17.430051 C320.107,26.670051 314.507,33.402051 304.576,33.402051 C294.898,33.402051 289.088,26.674051 289.088,17.429051 C289.088,8.30105101 294.721,1.50405101 304.577,1.50405101 C314.419,1.50405101 320.107,8.29405101 320.107,17.430051 L320.107,17.430051 Z" id="Fill-11" fill="#FFFFFF"></path>
                    <polygon id="Fill-13" fill="#FFFFFF" points="356.8407 32.872951 338.3937 6.40195101 338.3937 32.872951 335.7727 32.872951 335.7727 2.02595101 338.9407 2.02595101 357.3957 28.505951 357.3957 2.02595101 360.0167 2.02595101 360.0167 32.872951"></polygon>
                </g>
                <g id="Group-4" transform="translate(121.000000, 45.000000)" fill="#FFFFFF">
                    <polygon id="Fill-15" points="2.4237 2.17525101 2.4237 10.908251 13.8667 10.908251 13.8667 12.557251 2.4237 12.557251 2.4237 22.013251 14.9077 22.013251 14.9077 23.662251 0.4577 23.662251 0.4577 0.527251013 14.9077 0.527251013 14.9077 2.17525101"></polygon>
                    <polygon id="Fill-17" points="46.7098 23.662051 44.7438 23.662051 44.7438 14.438051 35.7308 0.527051013 38.0088 0.527051013 45.7288 12.621051 53.4508 0.527051013 55.7228 0.527051013 46.7098 14.444051"></polygon>
                    <polygon id="Fill-19" points="79.1815 2.17525101 79.1815 10.908251 90.6245 10.908251 90.6245 12.557251 79.1815 12.557251 79.1815 22.013251 91.6655 22.013251 91.6655 23.662251 77.2155 23.662251 77.2155 0.527251013 91.6655 0.527251013 91.6655 2.17525101"></polygon>
                    <path d="M158.2196,22.109851 C156.4576,23.319851 154.2016,24.025851 151.5126,24.025851 C144.1196,24.025851 139.8956,18.924851 139.8956,12.078851 C139.8956,5.23285101 144.1196,0.134851013 151.5126,0.134851013 C154.2016,0.134851013 156.4576,0.837851013 158.2196,2.04785101 L156.9826,3.39885101 C155.5276,2.35785101 153.7166,1.79985101 151.5126,1.79985101 C145.3996,1.79985101 141.8626,5.99585101 141.8626,12.078851 C141.8626,18.162851 145.3996,22.358851 151.5126,22.358851 C153.7166,22.358851 155.5276,21.799851 156.9826,20.759851 L158.2196,22.109851 Z" id="Fill-21"></path>
                    <polygon id="Fill-23" points="181.9471 2.17525101 181.9471 10.908251 193.3901 10.908251 193.3901 12.557251 181.9471 12.557251 181.9471 22.013251 194.4311 22.013251 194.4311 23.662251 179.9811 23.662251 179.9811 0.527251013 194.4311 0.527251013 194.4311 2.17525101"></polygon>
                    <polygon id="Fill-25" points="231.7831 23.662051 217.9471 3.80905101 217.9471 23.662051 215.9811 23.662051 215.9811 0.527051013 218.3571 0.527051013 232.1981 20.387051 232.1981 0.527051013 234.1651 0.527051013 234.1651 23.662051"></polygon>
                    <polygon id="Fill-27" points="266.1034 2.17525101 266.1034 23.662251 264.1374 23.662251 264.1374 2.17525101 255.5274 2.17525101 255.5274 0.527251013 274.7134 0.527251013 274.7134 2.17525101"></polygon>
                    <polygon id="Fill-29" points="298.1688 2.17525101 298.1688 10.908251 309.6118 10.908251 309.6118 12.557251 298.1688 12.557251 298.1688 22.013251 310.6528 22.013251 310.6528 23.662251 296.2028 23.662251 296.2028 0.527251013 310.6528 0.527251013 310.6528 2.17525101"></polygon>
                    <path d="M334.2987,13.356351 L341.6677,13.356351 C345.2267,13.356351 347.2267,11.181351 347.2267,7.74235101 C347.2267,4.34735101 345.1927,2.14535101 341.6677,2.14535101 L334.2987,2.14535101 L334.2987,13.356351 Z M341.8507,0.524351013 C346.4907,0.524351013 349.1927,3.48135101 349.1927,7.73935101 C349.1927,11.539351 347.1287,14.221351 343.4437,14.776351 L350.0167,23.662351 L347.6907,23.662351 L341.4137,14.972351 L334.3037,14.972351 L334.3037,23.662351 L332.3367,23.662351 L332.3367,0.524351013 L341.8507,0.524351013 Z" id="Fill-31"></path>
                </g>
                <g id="Group-5" transform="translate(0.000000, 94.000000)">
                    <path d="M2.9012,3.37785101 C2.5062,3.77485101 2.2602,4.32685101 2.1652,5.03185101 L6.5792,5.03185101 C6.5792,4.70085101 6.5332,4.39785101 6.4422,4.12285101 C6.3512,3.84785101 6.2182,3.60985101 6.0422,3.40885101 C5.8662,3.20885101 5.6502,3.05485101 5.3972,2.94485101 C5.1432,2.83585101 4.8532,2.78085101 4.5282,2.78085101 C3.8382,2.78085101 3.2972,2.97985101 2.9012,3.37785101 M5.8412,1.97585101 C6.2532,2.13885101 6.6082,2.37385101 6.9072,2.68085101 C7.2062,2.98685101 7.4392,3.36685101 7.6082,3.81785101 C7.7762,4.26985101 7.8602,4.78285101 7.8602,5.35985101 C7.8602,5.58485101 7.8372,5.73385101 7.7882,5.80885101 C7.7402,5.88385101 7.6492,5.92085101 7.5152,5.92085101 L2.1172,5.92085101 C2.1272,6.43385101 2.1972,6.87985101 2.3252,7.25885101 C2.4532,7.63785101 2.6302,7.95385101 2.8532,8.20785101 C3.0782,8.46185101 3.3442,8.65085101 3.6552,8.77685101 C3.9642,8.90185101 4.3112,8.96485101 4.6962,8.96485101 C5.0532,8.96485101 5.3622,8.92385101 5.6212,8.84085101 C5.8802,8.75785101 6.1032,8.66885101 6.2902,8.57185101 C6.4772,8.47685101 6.6332,8.38685101 6.7582,8.30485101 C6.8842,8.22185101 6.9922,8.17985101 7.0832,8.17985101 C7.2012,8.17985101 7.2922,8.22585101 7.3552,8.31585101 L7.7552,8.83685101 C7.5802,9.05085101 7.3692,9.23585101 7.1232,9.39385101 C6.8782,9.55185101 6.6152,9.68085101 6.3342,9.78185101 C6.0532,9.88385101 5.7642,9.95985101 5.4642,10.010851 C5.1662,10.061851 4.8702,10.086851 4.5762,10.086851 C4.0152,10.086851 3.4992,9.99185101 3.0262,9.80285101 C2.5532,9.61185101 2.1442,9.33485101 1.7992,8.96885101 C1.4562,8.60385101 1.1872,8.14985101 0.9952,7.61085101 C0.8022,7.07185101 0.7072,6.45185101 0.7072,5.75285101 C0.7072,5.18685101 0.7942,4.65785101 0.9662,4.16685101 C1.1402,3.67585101 1.3902,3.24885101 1.7152,2.88885101 C2.0422,2.52785101 2.4392,2.24485101 2.9102,2.03985101 C3.3802,1.83385101 3.9082,1.73185101 4.4962,1.73185101 C4.9812,1.73185101 5.4302,1.81285101 5.8412,1.97585101" id="Fill-33" fill="#FFFFFF"></path>
                    <path d="M22.8348,1.85935101 L22.8348,2.54835101 C22.8348,2.71335101 22.7548,2.81235101 22.5948,2.84435101 C22.5468,2.85535101 22.4048,2.88435101 22.1708,2.93235101 C21.9358,2.98135101 21.7968,3.00735101 21.7538,3.01235101 L17.7248,12.370351 C17.6168,12.604351 17.4458,12.722351 17.2118,12.722351 L16.1538,12.722351 L17.6368,9.50235101 L14.7838,2.98935101 C14.3948,2.91435101 14.1508,2.86635101 14.0558,2.84435101 C13.8958,2.81235101 13.8148,2.71335101 13.8148,2.54835101 L13.8148,1.85935101 L17.4518,1.85935101 L17.4518,2.54835101 C17.4518,2.71335101 17.3718,2.81235101 17.2118,2.84435101 C17.1258,2.86635101 16.8328,2.92435101 16.3298,3.02135101 L18.1328,7.26635101 C18.2188,7.48035101 18.2908,7.71735101 18.3498,7.97935101 C18.4448,7.66535101 18.5248,7.42435101 18.5898,7.25835101 L20.3438,3.02135101 C19.9108,2.93535101 19.6188,2.87735101 19.4668,2.84435101 C19.3138,2.81235101 19.2378,2.71335101 19.2378,2.54835101 L19.2378,1.85935101 L22.2508,1.85935101 L22.8348,1.85935101 Z" id="Fill-35" fill="#FFFFFF"></path>
                    <path d="M30.8094,3.37785101 C30.4144,3.77485101 30.1684,4.32685101 30.0734,5.03185101 L34.4874,5.03185101 C34.4874,4.70085101 34.4414,4.39785101 34.3504,4.12285101 C34.2594,3.84785101 34.1264,3.60985101 33.9504,3.40885101 C33.7744,3.20885101 33.5584,3.05485101 33.3054,2.94485101 C33.0514,2.83585101 32.7614,2.78085101 32.4364,2.78085101 C31.7464,2.78085101 31.2054,2.97985101 30.8094,3.37785101 M33.7494,1.97585101 C34.1614,2.13885101 34.5164,2.37385101 34.8154,2.68085101 C35.1144,2.98685101 35.3474,3.36685101 35.5164,3.81785101 C35.6844,4.26985101 35.7684,4.78285101 35.7684,5.35985101 C35.7684,5.58485101 35.7454,5.73385101 35.6964,5.80885101 C35.6484,5.88385101 35.5574,5.92085101 35.4234,5.92085101 L30.0254,5.92085101 C30.0354,6.43385101 30.1054,6.87985101 30.2334,7.25885101 C30.3614,7.63785101 30.5384,7.95385101 30.7614,8.20785101 C30.9864,8.46185101 31.2524,8.65085101 31.5634,8.77685101 C31.8724,8.90185101 32.2194,8.96485101 32.6044,8.96485101 C32.9614,8.96485101 33.2704,8.92385101 33.5294,8.84085101 C33.7884,8.75785101 34.0114,8.66885101 34.1984,8.57185101 C34.3854,8.47685101 34.5414,8.38685101 34.6664,8.30485101 C34.7924,8.22185101 34.9004,8.17985101 34.9914,8.17985101 C35.1094,8.17985101 35.2004,8.22585101 35.2634,8.31585101 L35.6634,8.83685101 C35.4884,9.05085101 35.2774,9.23585101 35.0314,9.39385101 C34.7864,9.55185101 34.5234,9.68085101 34.2424,9.78185101 C33.9614,9.88385101 33.6724,9.95985101 33.3724,10.010851 C33.0744,10.061851 32.7784,10.086851 32.4844,10.086851 C31.9234,10.086851 31.4074,9.99185101 30.9344,9.80285101 C30.4614,9.61185101 30.0524,9.33485101 29.7074,8.96885101 C29.3644,8.60385101 29.0954,8.14985101 28.9034,7.61085101 C28.7104,7.07185101 28.6154,6.45185101 28.6154,5.75285101 C28.6154,5.18685101 28.7024,4.65785101 28.8744,4.16685101 C29.0484,3.67585101 29.2984,3.24885101 29.6234,2.88885101 C29.9504,2.52785101 30.3474,2.24485101 30.8184,2.03985101 C31.2884,1.83385101 31.8164,1.73185101 32.4044,1.73185101 C32.8894,1.73185101 33.3384,1.81285101 33.7494,1.97585101" id="Fill-37" fill="#FFFFFF"></path>
                    <path d="M54.2137,10.086851 C53.1717,10.086851 52.3227,9.72085101 51.6657,8.98885101 C50.9777,8.23085101 50.6327,7.20485101 50.6327,5.91285101 C50.6327,4.66885101 50.9607,3.66685101 51.6177,2.90885101 C52.3067,2.12385101 53.2517,1.73185101 54.4537,1.73185101 C55.0727,1.73185101 55.8747,1.92885101 56.8577,2.32385101 L56.8577,4.43085101 L56.2167,4.43085101 C56.0617,4.43085101 55.9707,4.35685101 55.9437,4.20685101 C55.9277,4.14885101 55.9057,3.94785101 55.8797,3.60685101 C55.8537,3.26485101 55.8397,3.08485101 55.8397,3.06885101 C55.5827,2.98885101 55.3857,2.93885101 55.2467,2.91685101 C54.9377,2.86885101 54.6367,2.84785101 54.3457,2.85285101 C54.0547,2.85785101 53.7627,2.92885101 53.4687,3.06585101 C53.1747,3.20085101 52.9237,3.40285101 52.7157,3.66985101 C52.3047,4.20885101 52.0987,4.95685101 52.0987,5.91285101 C52.0987,6.87985101 52.3127,7.63785101 52.7387,8.18885101 C53.1557,8.71685101 53.7307,8.98185101 54.4617,8.98185101 C55.1297,8.98185101 55.7247,8.75685101 56.2477,8.30885101 C56.3447,8.22285101 56.4467,8.18085101 56.5567,8.18085101 C56.6657,8.18085101 56.7497,8.22585101 56.8097,8.31585101 L57.2097,8.83685101 C56.5307,9.66985101 55.5327,10.086851 54.2137,10.086851" id="Fill-39" fill="#FFFFFF"></path>
                    <path d="M68.2401,6.32125101 C67.5841,6.32125101 67.0251,6.36325101 66.5661,6.44625101 C66.1061,6.53025101 65.7331,6.63825101 65.4441,6.77325101 C65.1561,6.90725101 64.9461,7.06525101 64.8151,7.24825101 C64.6841,7.43125101 64.6191,7.63425101 64.6191,7.86025101 C64.6191,8.07525101 64.6541,8.26025101 64.7231,8.41725101 C64.7931,8.57225101 64.8861,8.70025101 65.0041,8.80025101 C65.1211,8.89825101 65.2611,8.97125101 65.4211,9.01625101 C65.5811,9.06225101 65.7541,9.08525101 65.9411,9.08525101 C66.1921,9.08525101 66.4221,9.06025101 66.6311,9.00925101 C66.8391,8.95925101 67.0351,8.88625101 67.2191,8.79325101 C67.4031,8.69925101 67.5801,8.58625101 67.7481,8.45225101 C67.9161,8.31925101 68.0801,8.16725101 68.2401,7.99625101 L68.2401,6.32125101 Z M70.6781,9.26725101 L70.6781,9.95925101 L69.6421,9.95925101 L69.5221,9.95925101 L69.0101,9.95925101 C68.8711,9.95925101 68.7591,9.93725101 68.6731,9.89425101 C68.5881,9.85125101 68.5311,9.76025101 68.5051,9.62225101 L68.3441,8.86925101 C68.1311,9.06125101 67.9231,9.23325101 67.7191,9.38525101 C67.5161,9.53825101 67.3031,9.66625101 67.0791,9.77025101 C66.8541,9.87425101 66.6151,9.95325101 66.3621,10.007251 C66.1081,10.059251 65.8261,10.087251 65.5161,10.087251 C65.2011,10.087251 64.9061,10.043251 64.6321,9.95425101 C64.3561,9.86625101 64.1181,9.73325101 63.9151,9.55525101 C63.7121,9.38025101 63.5511,9.15525101 63.4291,8.88425101 C63.3091,8.61425101 63.2501,8.29425101 63.2501,7.92525101 C63.2501,7.60325101 63.3381,7.29425101 63.5141,6.99625101 C63.6901,6.69825101 63.9741,6.43425101 64.3671,6.20425101 C64.7601,5.97325101 65.2731,5.78525101 65.9091,5.63725101 C66.5451,5.49025101 67.3221,5.41625101 68.2401,5.41625101 L68.2401,4.77925101 C68.2401,4.14525101 68.1051,3.66625101 67.8361,3.34125101 C67.5661,3.01525101 67.1671,2.85225101 66.6381,2.85225101 C66.2911,2.85225101 65.9991,2.89725101 65.7611,2.98525101 C65.5231,3.07325101 65.3171,3.17225101 65.1441,3.28125101 C64.9701,3.39125101 64.8211,3.49025101 64.6961,3.57825101 C64.5701,3.66625101 64.4461,3.71025101 64.3231,3.71025101 C64.2271,3.71025101 64.1421,3.68425101 64.0711,3.63325101 C63.9991,3.58325101 63.9411,3.52025101 63.8981,3.44525101 L63.6421,2.98925101 C64.0911,2.55625101 64.5741,2.23325101 65.0921,2.01925101 C65.6101,1.80625101 66.1841,1.69925101 66.8141,1.69925101 C67.2681,1.69925101 67.6721,1.77425101 68.0241,1.92425101 C68.3771,2.07325101 68.6731,2.28125101 68.9131,2.54925101 C69.1541,2.81525101 69.3351,3.13825101 69.4581,3.51725101 C69.5811,3.89725101 69.6421,4.31325101 69.6421,4.76725101 L69.6421,8.81325101 C69.8641,8.85725101 70.3291,8.95025101 70.4341,8.97025101 C70.5751,8.99925101 70.6781,9.12525101 70.6781,9.26725101 L70.6781,9.26725101 Z" id="Fill-41" fill="#FFFFFF"></path>
                    <path d="M81.952,1.71575101 C82.368,1.71575101 82.739,1.81175101 83.065,2.00375101 L82.881,3.06975101 C82.844,3.20275101 82.774,3.26975101 82.673,3.26975101 C82.571,3.26975101 82.443,3.24375101 82.288,3.19375101 C82.134,3.14275101 81.917,3.11675101 81.64,3.11675101 C80.71,3.11675101 80.015,3.68075101 79.556,4.80775101 L79.556,8.80475101 C79.69,8.83175101 79.994,8.89375101 80.47,8.98875101 C80.63,9.02175101 80.71,9.11975101 80.71,9.28575101 L80.71,9.97475101 L76.977,9.97475101 L76.977,9.28575101 C76.977,9.11975101 77.057,9.02175101 77.218,8.98875101 L78.131,8.80475101 L78.131,3.02875101 C77.618,2.92775101 77.313,2.86575101 77.218,2.84475101 C77.057,2.81275101 76.977,2.71375101 76.977,2.54875101 L76.977,1.85975101 L78.131,1.85975101 L78.948,1.85975101 C79.102,1.85975101 79.21,1.88875101 79.268,1.94675101 C79.327,2.00675101 79.367,2.10875101 79.389,2.25175101 L79.484,3.51775101 C80.077,2.31675101 80.899,1.71575101 81.952,1.71575101" id="Fill-43" fill="#FFFFFF"></path>
                    <path d="M90.9423,3.37785101 C90.5473,3.77485101 90.3013,4.32685101 90.2063,5.03185101 L94.6203,5.03185101 C94.6203,4.70085101 94.5743,4.39785101 94.4833,4.12285101 C94.3923,3.84785101 94.2593,3.60985101 94.0833,3.40885101 C93.9073,3.20885101 93.6913,3.05485101 93.4383,2.94485101 C93.1843,2.83585101 92.8943,2.78085101 92.5693,2.78085101 C91.8793,2.78085101 91.3383,2.97985101 90.9423,3.37785101 M93.8823,1.97585101 C94.2943,2.13885101 94.6493,2.37385101 94.9483,2.68085101 C95.2473,2.98685101 95.4803,3.36685101 95.6493,3.81785101 C95.8173,4.26985101 95.9013,4.78285101 95.9013,5.35985101 C95.9013,5.58485101 95.8783,5.73385101 95.8293,5.80885101 C95.7813,5.88385101 95.6903,5.92085101 95.5563,5.92085101 L90.1583,5.92085101 C90.1683,6.43385101 90.2383,6.87985101 90.3663,7.25885101 C90.4943,7.63785101 90.6713,7.95385101 90.8943,8.20785101 C91.1193,8.46185101 91.3853,8.65085101 91.6963,8.77685101 C92.0053,8.90185101 92.3523,8.96485101 92.7373,8.96485101 C93.0943,8.96485101 93.4033,8.92385101 93.6623,8.84085101 C93.9213,8.75785101 94.1443,8.66885101 94.3313,8.57185101 C94.5183,8.47685101 94.6743,8.38685101 94.7993,8.30485101 C94.9253,8.22185101 95.0333,8.17985101 95.1243,8.17985101 C95.2423,8.17985101 95.3333,8.22585101 95.3963,8.31585101 L95.7963,8.83685101 C95.6213,9.05085101 95.4103,9.23585101 95.1643,9.39385101 C94.9193,9.55185101 94.6563,9.68085101 94.3753,9.78185101 C94.0943,9.88385101 93.8053,9.95985101 93.5053,10.010851 C93.2073,10.061851 92.9113,10.086851 92.6173,10.086851 C92.0563,10.086851 91.5403,9.99185101 91.0673,9.80285101 C90.5943,9.61185101 90.1853,9.33485101 89.8403,8.96885101 C89.4973,8.60385101 89.2283,8.14985101 89.0363,7.61085101 C88.8433,7.07185101 88.7483,6.45185101 88.7483,5.75285101 C88.7483,5.18685101 88.8353,4.65785101 89.0073,4.16685101 C89.1813,3.67585101 89.4313,3.24885101 89.7563,2.88885101 C90.0833,2.52785101 90.4803,2.24485101 90.9513,2.03985101 C91.4213,1.83385101 91.9493,1.73185101 92.5373,1.73185101 C93.0223,1.73185101 93.4713,1.81285101 93.8823,1.97585101" id="Fill-45" fill="#FFFFFF"></path>
                    <path d="M128.7645,5.19525101 C128.8155,5.07225101 128.8845,4.96625101 128.9725,4.87525101 C129.0605,4.78425101 129.1665,4.71225101 129.2885,4.65825101 C129.4115,4.60425101 129.5425,4.57825101 129.6815,4.57825101 C129.8205,4.57825101 129.9515,4.60425101 130.0745,4.65825101 C130.1975,4.71225101 130.3035,4.78425101 130.3945,4.87525101 C130.4855,4.96625101 130.5565,5.07225101 130.6075,5.19525101 C130.6585,5.31725101 130.6835,5.44825101 130.6835,5.58825101 C130.6835,5.73125101 130.6585,5.86425101 130.6075,5.98425101 C130.5565,6.10425101 130.4855,6.21025101 130.3945,6.30025101 C130.3035,6.39125101 130.1975,6.46225101 130.0745,6.51225101 C129.9515,6.56325101 129.8205,6.58925101 129.6815,6.58925101 C129.5425,6.58925101 129.4115,6.56325101 129.2885,6.51225101 C129.1665,6.46225101 129.0615,6.39125101 128.9725,6.30025101 C128.8845,6.21025101 128.8155,6.10425101 128.7645,5.98425101 C128.7135,5.86425101 128.6885,5.73125101 128.6885,5.58825101 C128.6885,5.44825101 128.7135,5.31725101 128.7645,5.19525101" id="Fill-47" fill="#FFFFFF"></path>
                    <path d="M165.577,3.37785101 C165.182,3.77485101 164.936,4.32685101 164.841,5.03185101 L169.255,5.03185101 C169.255,4.70085101 169.209,4.39785101 169.118,4.12285101 C169.027,3.84785101 168.894,3.60985101 168.718,3.40885101 C168.542,3.20885101 168.326,3.05485101 168.073,2.94485101 C167.819,2.83585101 167.529,2.78085101 167.204,2.78085101 C166.514,2.78085101 165.973,2.97985101 165.577,3.37785101 M168.517,1.97585101 C168.929,2.13885101 169.284,2.37385101 169.583,2.68085101 C169.882,2.98685101 170.115,3.36685101 170.284,3.81785101 C170.452,4.26985101 170.536,4.78285101 170.536,5.35985101 C170.536,5.58485101 170.513,5.73385101 170.464,5.80885101 C170.416,5.88385101 170.325,5.92085101 170.191,5.92085101 L164.793,5.92085101 C164.803,6.43385101 164.873,6.87985101 165.001,7.25885101 C165.129,7.63785101 165.306,7.95385101 165.529,8.20785101 C165.754,8.46185101 166.02,8.65085101 166.331,8.77685101 C166.64,8.90185101 166.987,8.96485101 167.372,8.96485101 C167.729,8.96485101 168.038,8.92385101 168.297,8.84085101 C168.556,8.75785101 168.779,8.66885101 168.966,8.57185101 C169.153,8.47685101 169.309,8.38685101 169.434,8.30485101 C169.56,8.22185101 169.668,8.17985101 169.759,8.17985101 C169.877,8.17985101 169.968,8.22585101 170.031,8.31585101 L170.431,8.83685101 C170.256,9.05085101 170.045,9.23585101 169.799,9.39385101 C169.554,9.55185101 169.291,9.68085101 169.01,9.78185101 C168.729,9.88385101 168.44,9.95985101 168.14,10.010851 C167.842,10.061851 167.546,10.086851 167.252,10.086851 C166.691,10.086851 166.175,9.99185101 165.702,9.80285101 C165.229,9.61185101 164.82,9.33485101 164.475,8.96885101 C164.132,8.60385101 163.863,8.14985101 163.671,7.61085101 C163.478,7.07185101 163.383,6.45185101 163.383,5.75285101 C163.383,5.18685101 163.47,4.65785101 163.642,4.16685101 C163.816,3.67585101 164.066,3.24885101 164.391,2.88885101 C164.718,2.52785101 165.115,2.24485101 165.586,2.03985101 C166.056,1.83385101 166.584,1.73185101 167.172,1.73185101 C167.657,1.73185101 168.106,1.81285101 168.517,1.97585101" id="Fill-49" fill="#FFFFFF"></path>
                    <path d="M185.5116,1.85935101 L185.5116,2.54835101 C185.5116,2.71335101 185.4316,2.81235101 185.2716,2.84435101 C185.2236,2.85535101 185.0816,2.88435101 184.8476,2.93235101 C184.6126,2.98135101 184.4736,3.00735101 184.4306,3.01235101 L180.4016,12.370351 C180.2936,12.604351 180.1226,12.722351 179.8886,12.722351 L178.8306,12.722351 L180.3136,9.50235101 L177.4606,2.98935101 C177.0716,2.91435101 176.8276,2.86635101 176.7326,2.84435101 C176.5726,2.81235101 176.4916,2.71335101 176.4916,2.54835101 L176.4916,1.85935101 L180.1286,1.85935101 L180.1286,2.54835101 C180.1286,2.71335101 180.0486,2.81235101 179.8886,2.84435101 C179.8026,2.86635101 179.5096,2.92435101 179.0066,3.02135101 L180.8096,7.26635101 C180.8956,7.48035101 180.9666,7.71735101 181.0266,7.97935101 C181.1216,7.66535101 181.2016,7.42435101 181.2666,7.25835101 L183.0206,3.02135101 C182.5876,2.93535101 182.2956,2.87735101 182.1436,2.84435101 C181.9906,2.81235101 181.9146,2.71335101 181.9146,2.54835101 L181.9146,1.85935101 L184.9276,1.85935101 L185.5116,1.85935101 Z" id="Fill-51" fill="#FFFFFF"></path>
                    <path d="M193.4852,3.37785101 C193.0902,3.77485101 192.8442,4.32685101 192.7492,5.03185101 L197.1632,5.03185101 C197.1632,4.70085101 197.1172,4.39785101 197.0262,4.12285101 C196.9352,3.84785101 196.8022,3.60985101 196.6262,3.40885101 C196.4502,3.20885101 196.2342,3.05485101 195.9812,2.94485101 C195.7272,2.83585101 195.4372,2.78085101 195.1122,2.78085101 C194.4222,2.78085101 193.8812,2.97985101 193.4852,3.37785101 M196.4252,1.97585101 C196.8372,2.13885101 197.1922,2.37385101 197.4912,2.68085101 C197.7902,2.98685101 198.0232,3.36685101 198.1922,3.81785101 C198.3602,4.26985101 198.4442,4.78285101 198.4442,5.35985101 C198.4442,5.58485101 198.4212,5.73385101 198.3722,5.80885101 C198.3242,5.88385101 198.2332,5.92085101 198.0992,5.92085101 L192.7012,5.92085101 C192.7112,6.43385101 192.7812,6.87985101 192.9092,7.25885101 C193.0372,7.63785101 193.2142,7.95385101 193.4372,8.20785101 C193.6622,8.46185101 193.9282,8.65085101 194.2392,8.77685101 C194.5482,8.90185101 194.8952,8.96485101 195.2802,8.96485101 C195.6372,8.96485101 195.9462,8.92385101 196.2052,8.84085101 C196.4642,8.75785101 196.6872,8.66885101 196.8742,8.57185101 C197.0612,8.47685101 197.2172,8.38685101 197.3422,8.30485101 C197.4682,8.22185101 197.5762,8.17985101 197.6672,8.17985101 C197.7852,8.17985101 197.8762,8.22585101 197.9392,8.31585101 L198.3392,8.83685101 C198.1642,9.05085101 197.9532,9.23585101 197.7072,9.39385101 C197.4622,9.55185101 197.1992,9.68085101 196.9182,9.78185101 C196.6372,9.88385101 196.3482,9.95985101 196.0482,10.010851 C195.7502,10.061851 195.4542,10.086851 195.1602,10.086851 C194.5992,10.086851 194.0832,9.99185101 193.6102,9.80285101 C193.1372,9.61185101 192.7282,9.33485101 192.3832,8.96885101 C192.0402,8.60385101 191.7712,8.14985101 191.5792,7.61085101 C191.3862,7.07185101 191.2912,6.45185101 191.2912,5.75285101 C191.2912,5.18685101 191.3782,4.65785101 191.5502,4.16685101 C191.7242,3.67585101 191.9742,3.24885101 192.2992,2.88885101 C192.6262,2.52785101 193.0232,2.24485101 193.4942,2.03985101 C193.9642,1.83385101 194.4922,1.73185101 195.0802,1.73185101 C195.5652,1.73185101 196.0142,1.81285101 196.4252,1.97585101" id="Fill-53" fill="#FFFFFF"></path>
                    <path d="M226.5751,1.85935101 L226.5751,2.54835101 C226.5751,2.71335101 226.4951,2.81235101 226.3351,2.84435101 C226.2761,2.85535101 226.1401,2.88235101 225.9271,2.92435101 C225.7131,2.96735101 225.5821,2.99435101 225.5341,3.00535101 L223.2831,9.97435101 L222.1531,9.97435101 C222.0101,9.97435101 221.9131,9.88335101 221.8651,9.70235101 L220.0701,4.19935101 C220.0221,4.07635101 219.9851,3.94635101 219.9591,3.81035101 C219.9311,3.67335101 219.9081,3.55535101 219.8871,3.45435101 C219.8541,3.59235101 219.8261,3.72135101 219.8031,3.84235101 C219.7781,3.96335101 219.7451,4.08435101 219.7021,4.20735101 L217.8841,9.70235101 C217.8251,9.88335101 217.7161,9.97435101 217.5551,9.97435101 L216.4811,9.97435101 L214.2221,3.00535101 C214.1791,3.00035101 214.0921,2.98335101 213.9581,2.95735101 C213.6481,2.89235101 213.4701,2.85535101 213.4221,2.84435101 C213.2621,2.81235101 213.1811,2.71335101 213.1811,2.54835101 L213.1811,1.85935101 L216.8031,1.85935101 L216.8031,2.54835101 C216.8021,2.71335101 216.7201,2.81235101 216.5541,2.84435101 C216.4521,2.86635101 216.1591,2.92435101 215.6731,3.02135101 L216.9711,7.37935101 C217.0771,7.86535101 217.1491,8.23035101 217.1861,8.47635101 C217.2341,8.26235101 217.3391,7.89735101 217.4991,7.37935101 L219.2141,2.12435101 C219.2721,1.93735101 219.4031,1.84335101 219.6061,1.84335101 L220.2221,1.84335101 C220.4311,1.84335101 220.5671,1.93735101 220.6321,2.12435101 L222.3051,7.37935101 C222.3751,7.60835101 222.4691,7.97135101 222.5861,8.46835101 C222.6441,8.09935101 222.7271,7.73735101 222.8341,7.37935101 L224.1481,3.02935101 C224.0731,3.01835101 223.7591,2.95735101 223.2031,2.84435101 C223.0371,2.81235101 222.9541,2.71335101 222.9551,2.54835101 L222.9551,1.85935101 L226.5751,1.85935101 Z" id="Fill-55" fill="#FFFFFF"></path>
                    <path d="M234.7577,3.37785101 C234.3627,3.77485101 234.1167,4.32685101 234.0217,5.03185101 L238.4357,5.03185101 C238.4357,4.70085101 238.3897,4.39785101 238.2987,4.12285101 C238.2077,3.84785101 238.0747,3.60985101 237.8987,3.40885101 C237.7227,3.20885101 237.5067,3.05485101 237.2537,2.94485101 C236.9997,2.83585101 236.7097,2.78085101 236.3847,2.78085101 C235.6947,2.78085101 235.1537,2.97985101 234.7577,3.37785101 M237.6977,1.97585101 C238.1097,2.13885101 238.4647,2.37385101 238.7637,2.68085101 C239.0627,2.98685101 239.2957,3.36685101 239.4647,3.81785101 C239.6327,4.26985101 239.7167,4.78285101 239.7167,5.35985101 C239.7167,5.58485101 239.6937,5.73385101 239.6447,5.80885101 C239.5967,5.88385101 239.5057,5.92085101 239.3717,5.92085101 L233.9737,5.92085101 C233.9837,6.43385101 234.0537,6.87985101 234.1817,7.25885101 C234.3097,7.63785101 234.4867,7.95385101 234.7097,8.20785101 C234.9347,8.46185101 235.2007,8.65085101 235.5117,8.77685101 C235.8207,8.90185101 236.1677,8.96485101 236.5527,8.96485101 C236.9097,8.96485101 237.2187,8.92385101 237.4777,8.84085101 C237.7367,8.75785101 237.9597,8.66885101 238.1467,8.57185101 C238.3337,8.47685101 238.4897,8.38685101 238.6147,8.30485101 C238.7407,8.22185101 238.8487,8.17985101 238.9397,8.17985101 C239.0577,8.17985101 239.1487,8.22585101 239.2117,8.31585101 L239.6127,8.83685101 C239.4367,9.05085101 239.2257,9.23585101 238.9797,9.39385101 C238.7347,9.55185101 238.4717,9.68085101 238.1907,9.78185101 C237.9097,9.88385101 237.6207,9.95985101 237.3207,10.010851 C237.0227,10.061851 236.7267,10.086851 236.4327,10.086851 C235.8717,10.086851 235.3557,9.99185101 234.8827,9.80285101 C234.4097,9.61185101 234.0007,9.33485101 233.6557,8.96885101 C233.3127,8.60385101 233.0437,8.14985101 232.8517,7.61085101 C232.6587,7.07185101 232.5637,6.45185101 232.5637,5.75285101 C232.5637,5.18685101 232.6507,4.65785101 232.8227,4.16685101 C232.9967,3.67585101 233.2467,3.24885101 233.5717,2.88885101 C233.8987,2.52785101 234.2957,2.24485101 234.7667,2.03985101 C235.2367,1.83385101 235.7647,1.73185101 236.3527,1.73185101 C236.8377,1.73185101 237.2867,1.81285101 237.6977,1.97585101" id="Fill-57" fill="#FFFFFF"></path>
                    <path d="M250.8124,6.32125101 C250.1564,6.32125101 249.5974,6.36325101 249.1384,6.44625101 C248.6784,6.53025101 248.3054,6.63825101 248.0164,6.77325101 C247.7284,6.90725101 247.5184,7.06525101 247.3874,7.24825101 C247.2564,7.43125101 247.1914,7.63425101 247.1914,7.86025101 C247.1914,8.07525101 247.2264,8.26025101 247.2954,8.41725101 C247.3654,8.57225101 247.4584,8.70025101 247.5764,8.80025101 C247.6934,8.89825101 247.8334,8.97125101 247.9934,9.01625101 C248.1534,9.06225101 248.3264,9.08525101 248.5134,9.08525101 C248.7644,9.08525101 248.9944,9.06025101 249.2034,9.00925101 C249.4114,8.95925101 249.6074,8.88625101 249.7914,8.79325101 C249.9754,8.69925101 250.1524,8.58625101 250.3204,8.45225101 C250.4884,8.31925101 250.6524,8.16725101 250.8124,7.99625101 L250.8124,6.32125101 Z M253.2504,9.26725101 L253.2504,9.95925101 L252.2144,9.95925101 L252.0944,9.95925101 L251.5824,9.95925101 C251.4434,9.95925101 251.3314,9.93725101 251.2454,9.89425101 C251.1604,9.85125101 251.1034,9.76025101 251.0774,9.62225101 L250.9164,8.86925101 C250.7034,9.06125101 250.4954,9.23325101 250.2914,9.38525101 C250.0884,9.53825101 249.8754,9.66625101 249.6514,9.77025101 C249.4264,9.87425101 249.1874,9.95325101 248.9344,10.007251 C248.6804,10.059251 248.3984,10.087251 248.0884,10.087251 C247.7734,10.087251 247.4784,10.043251 247.2044,9.95425101 C246.9284,9.86625101 246.6904,9.73325101 246.4874,9.55525101 C246.2844,9.38025101 246.1234,9.15525101 246.0014,8.88425101 C245.8814,8.61425101 245.8224,8.29425101 245.8224,7.92525101 C245.8224,7.60325101 245.9104,7.29425101 246.0864,6.99625101 C246.2624,6.69825101 246.5464,6.43425101 246.9394,6.20425101 C247.3324,5.97325101 247.8454,5.78525101 248.4814,5.63725101 C249.1174,5.49025101 249.8944,5.41625101 250.8124,5.41625101 L250.8124,4.77925101 C250.8124,4.14525101 250.6774,3.66625101 250.4084,3.34125101 C250.1384,3.01525101 249.7394,2.85225101 249.2104,2.85225101 C248.8634,2.85225101 248.5714,2.89725101 248.3334,2.98525101 C248.0954,3.07325101 247.8894,3.17225101 247.7164,3.28125101 C247.5424,3.39125101 247.3934,3.49025101 247.2684,3.57825101 C247.1424,3.66625101 247.0184,3.71025101 246.8954,3.71025101 C246.7994,3.71025101 246.7144,3.68425101 246.6434,3.63325101 C246.5714,3.58325101 246.5134,3.52025101 246.4704,3.44525101 L246.2144,2.98925101 C246.6634,2.55625101 247.1464,2.23325101 247.6644,2.01925101 C248.1824,1.80625101 248.7564,1.69925101 249.3864,1.69925101 C249.8404,1.69925101 250.2444,1.77425101 250.5964,1.92425101 C250.9494,2.07325101 251.2454,2.28125101 251.4854,2.54925101 C251.7264,2.81525101 251.9074,3.13825101 252.0304,3.51725101 C252.1534,3.89725101 252.2144,4.31325101 252.2144,4.76725101 L252.2144,8.81325101 C252.4364,8.85725101 252.9014,8.95025101 253.0064,8.97025101 C253.1474,8.99925101 253.2504,9.12525101 253.2504,9.26725101 L253.2504,9.26725101 Z" id="Fill-59" fill="#FFFFFF"></path>
                    <path d="M264.5243,1.71575101 C264.9403,1.71575101 265.3113,1.81175101 265.6373,2.00375101 L265.4533,3.06975101 C265.4163,3.20275101 265.3463,3.26975101 265.2453,3.26975101 C265.1433,3.26975101 265.0153,3.24375101 264.8603,3.19375101 C264.7063,3.14275101 264.4893,3.11675101 264.2123,3.11675101 C263.2823,3.11675101 262.5873,3.68075101 262.1283,4.80775101 L262.1283,8.80475101 C262.2623,8.83175101 262.5663,8.89375101 263.0423,8.98875101 C263.2023,9.02175101 263.2823,9.11975101 263.2823,9.28575101 L263.2823,9.97475101 L259.5493,9.97475101 L259.5493,9.28575101 C259.5493,9.11975101 259.6293,9.02175101 259.7903,8.98875101 L260.7033,8.80475101 L260.7033,3.02875101 C260.1903,2.92775101 259.8853,2.86575101 259.7903,2.84475101 C259.6293,2.81275101 259.5493,2.71375101 259.5493,2.54875101 L259.5493,1.85975101 L260.7033,1.85975101 L261.5203,1.85975101 C261.6743,1.85975101 261.7823,1.88875101 261.8403,1.94675101 C261.8993,2.00675101 261.9393,2.10875101 261.9613,2.25175101 L262.0563,3.51775101 C262.6493,2.31675101 263.4713,1.71575101 264.5243,1.71575101" id="Fill-61" fill="#FFFFFF"></path>
                    <path d="M298.4032,5.19525101 C298.4542,5.07225101 298.5232,4.96625101 298.6112,4.87525101 C298.6992,4.78425101 298.8052,4.71225101 298.9272,4.65825101 C299.0502,4.60425101 299.1812,4.57825101 299.3202,4.57825101 C299.4592,4.57825101 299.5902,4.60425101 299.7132,4.65825101 C299.8362,4.71225101 299.9422,4.78425101 300.0332,4.87525101 C300.1242,4.96625101 300.1952,5.07225101 300.2462,5.19525101 C300.2972,5.31725101 300.3222,5.44825101 300.3222,5.58825101 C300.3222,5.73125101 300.2972,5.86425101 300.2462,5.98425101 C300.1952,6.10425101 300.1242,6.21025101 300.0332,6.30025101 C299.9422,6.39125101 299.8362,6.46225101 299.7132,6.51225101 C299.5902,6.56325101 299.4592,6.58925101 299.3202,6.58925101 C299.1812,6.58925101 299.0502,6.56325101 298.9272,6.51225101 C298.8052,6.46225101 298.7002,6.39125101 298.6112,6.30025101 C298.5232,6.21025101 298.4542,6.10425101 298.4032,5.98425101 C298.3522,5.86425101 298.3272,5.73125101 298.3272,5.58825101 C298.3272,5.44825101 298.3522,5.31725101 298.4032,5.19525101" id="Fill-63" fill="#FFFFFF"></path>
                    <path d="M335.2157,3.37785101 C334.8207,3.77485101 334.5747,4.32685101 334.4797,5.03185101 L338.8937,5.03185101 C338.8937,4.70085101 338.8477,4.39785101 338.7567,4.12285101 C338.6657,3.84785101 338.5327,3.60985101 338.3567,3.40885101 C338.1807,3.20885101 337.9647,3.05485101 337.7117,2.94485101 C337.4577,2.83585101 337.1677,2.78085101 336.8427,2.78085101 C336.1527,2.78085101 335.6117,2.97985101 335.2157,3.37785101 M338.1557,1.97585101 C338.5677,2.13885101 338.9227,2.37385101 339.2217,2.68085101 C339.5207,2.98685101 339.7537,3.36685101 339.9227,3.81785101 C340.0907,4.26985101 340.1747,4.78285101 340.1747,5.35985101 C340.1747,5.58485101 340.1517,5.73385101 340.1027,5.80885101 C340.0547,5.88385101 339.9637,5.92085101 339.8297,5.92085101 L334.4317,5.92085101 C334.4417,6.43385101 334.5117,6.87985101 334.6397,7.25885101 C334.7677,7.63785101 334.9447,7.95385101 335.1677,8.20785101 C335.3927,8.46185101 335.6587,8.65085101 335.9697,8.77685101 C336.2787,8.90185101 336.6257,8.96485101 337.0107,8.96485101 C337.3677,8.96485101 337.6767,8.92385101 337.9357,8.84085101 C338.1947,8.75785101 338.4177,8.66885101 338.6047,8.57185101 C338.7917,8.47685101 338.9477,8.38685101 339.0727,8.30485101 C339.1987,8.22185101 339.3067,8.17985101 339.3977,8.17985101 C339.5157,8.17985101 339.6067,8.22585101 339.6697,8.31585101 L340.0697,8.83685101 C339.8947,9.05085101 339.6837,9.23585101 339.4377,9.39385101 C339.1927,9.55185101 338.9297,9.68085101 338.6487,9.78185101 C338.3677,9.88385101 338.0787,9.95985101 337.7787,10.010851 C337.4807,10.061851 337.1847,10.086851 336.8907,10.086851 C336.3297,10.086851 335.8137,9.99185101 335.3407,9.80285101 C334.8677,9.61185101 334.4587,9.33485101 334.1137,8.96885101 C333.7707,8.60385101 333.5017,8.14985101 333.3097,7.61085101 C333.1167,7.07185101 333.0217,6.45185101 333.0217,5.75285101 C333.0217,5.18685101 333.1087,4.65785101 333.2807,4.16685101 C333.4547,3.67585101 333.7047,3.24885101 334.0297,2.88885101 C334.3567,2.52785101 334.7537,2.24485101 335.2247,2.03985101 C335.6947,1.83385101 336.2227,1.73185101 336.8107,1.73185101 C337.2957,1.73185101 337.7447,1.81285101 338.1557,1.97585101" id="Fill-65" fill="#FFFFFF"></path>
                    <path d="M355.1503,1.85935101 L355.1503,2.54835101 C355.1503,2.71335101 355.0703,2.81235101 354.9103,2.84435101 C354.8623,2.85535101 354.7203,2.88435101 354.4863,2.93235101 C354.2513,2.98135101 354.1123,3.00735101 354.0693,3.01235101 L350.0403,12.370351 C349.9323,12.604351 349.7613,12.722351 349.5273,12.722351 L348.4693,12.722351 L349.9523,9.50235101 L347.0993,2.98935101 C346.7103,2.91435101 346.4663,2.86635101 346.3713,2.84435101 C346.2113,2.81235101 346.1303,2.71335101 346.1303,2.54835101 L346.1303,1.85935101 L349.7673,1.85935101 L349.7673,2.54835101 C349.7673,2.71335101 349.6873,2.81235101 349.5273,2.84435101 C349.4413,2.86635101 349.1483,2.92435101 348.6453,3.02135101 L350.4483,7.26635101 C350.5343,7.48035101 350.6053,7.71735101 350.6653,7.97935101 C350.7603,7.66535101 350.8403,7.42435101 350.9053,7.25835101 L352.6593,3.02135101 C352.2263,2.93535101 351.9343,2.87735101 351.7823,2.84435101 C351.6293,2.81235101 351.5533,2.71335101 351.5533,2.54835101 L351.5533,1.85935101 L354.5663,1.85935101 L355.1503,1.85935101 Z" id="Fill-67" fill="#FFFFFF"></path>
                    <path d="M363.1239,3.37785101 C362.7289,3.77485101 362.4829,4.32685101 362.3879,5.03185101 L366.8019,5.03185101 C366.8019,4.70085101 366.7559,4.39785101 366.6649,4.12285101 C366.5739,3.84785101 366.4409,3.60985101 366.2649,3.40885101 C366.0889,3.20885101 365.8729,3.05485101 365.6199,2.94485101 C365.3659,2.83585101 365.0759,2.78085101 364.7509,2.78085101 C364.0609,2.78085101 363.5199,2.97985101 363.1239,3.37785101 M366.0639,1.97585101 C366.4759,2.13885101 366.8309,2.37385101 367.1299,2.68085101 C367.4289,2.98685101 367.6619,3.36685101 367.8309,3.81785101 C367.9989,4.26985101 368.0829,4.78285101 368.0829,5.35985101 C368.0829,5.58485101 368.0599,5.73385101 368.0109,5.80885101 C367.9629,5.88385101 367.8719,5.92085101 367.7379,5.92085101 L362.3399,5.92085101 C362.3499,6.43385101 362.4199,6.87985101 362.5479,7.25885101 C362.6759,7.63785101 362.8529,7.95385101 363.0759,8.20785101 C363.3009,8.46185101 363.5669,8.65085101 363.8779,8.77685101 C364.1869,8.90185101 364.5339,8.96485101 364.9189,8.96485101 C365.2759,8.96485101 365.5849,8.92385101 365.8439,8.84085101 C366.1029,8.75785101 366.3259,8.66885101 366.5129,8.57185101 C366.6999,8.47685101 366.8559,8.38685101 366.9809,8.30485101 C367.1069,8.22185101 367.2149,8.17985101 367.3059,8.17985101 C367.4239,8.17985101 367.5149,8.22585101 367.5779,8.31585101 L367.9779,8.83685101 C367.8029,9.05085101 367.5919,9.23585101 367.3459,9.39385101 C367.1009,9.55185101 366.8379,9.68085101 366.5569,9.78185101 C366.2759,9.88385101 365.9869,9.95985101 365.6869,10.010851 C365.3889,10.061851 365.0929,10.086851 364.7989,10.086851 C364.2379,10.086851 363.7219,9.99185101 363.2489,9.80285101 C362.7759,9.61185101 362.3669,9.33485101 362.0219,8.96885101 C361.6789,8.60385101 361.4099,8.14985101 361.2179,7.61085101 C361.0249,7.07185101 360.9299,6.45185101 360.9299,5.75285101 C360.9299,5.18685101 361.0169,4.65785101 361.1889,4.16685101 C361.3629,3.67585101 361.6129,3.24885101 361.9379,2.88885101 C362.2649,2.52785101 362.6619,2.24485101 363.1329,2.03985101 C363.6029,1.83385101 364.1309,1.73185101 364.7189,1.73185101 C365.2039,1.73185101 365.6529,1.81285101 366.0639,1.97585101" id="Fill-69" fill="#FFFFFF"></path>
                    <path d="M388.4276,2.15625101 L388.4276,2.72425101 L388.4276,4.23925101 L387.7946,4.23925101 C387.6396,4.23925101 387.5486,4.16425101 387.5226,4.01425101 C387.5166,3.99325101 387.4856,3.64325101 387.4256,2.96525101 C386.9406,2.85225101 386.5236,2.79725101 386.1766,2.79725101 L386.1596,2.79725101 C385.7066,2.80225101 385.3376,2.91725101 385.0546,3.14125101 C384.7726,3.36025101 384.6306,3.60625101 384.6306,3.87825101 C384.6306,4.15025101 384.6916,4.35625101 384.8146,4.49525101 C385.0286,4.74625101 385.3346,4.93225101 385.7366,5.05525101 C386.1366,5.17825101 386.4686,5.28425101 386.7336,5.37225101 C386.9976,5.46125101 387.2556,5.55725101 387.5066,5.66525101 C387.7576,5.77125101 387.9816,5.90525101 388.1796,6.06525101 C388.6166,6.42325101 388.8356,6.89825101 388.8356,7.49125101 C388.8356,8.26525101 388.5726,8.88525101 388.0426,9.34925101 C387.4926,9.84125101 386.7806,10.090251 385.9046,10.094251 C385.0286,10.100251 384.1556,9.95325101 383.2836,9.65425101 L383.2836,7.53125101 L383.8536,7.53125101 C383.9876,7.53125101 384.0676,7.59725101 384.0936,7.73125101 C384.1046,7.77925101 384.1366,8.12125101 384.1896,8.75725101 C384.6496,8.97025101 385.1986,9.07725101 385.8396,9.07725101 C386.3686,9.07725101 386.7846,8.94425101 387.0896,8.67725101 C387.3626,8.43625101 387.4976,8.16425101 387.4976,7.85925101 C387.4976,7.55525101 387.4386,7.33025101 387.3186,7.18225101 C387.1986,7.03625101 387.0386,6.91025101 386.8416,6.80625101 C386.6436,6.70225101 386.4166,6.61225101 386.1596,6.53825101 C385.4556,6.31925101 384.9576,6.14625101 384.6666,6.02125101 C384.3746,5.89525101 384.1306,5.75025101 383.9336,5.58525101 C383.4946,5.21625101 383.2766,4.71725101 383.2766,4.08725101 C383.2766,3.42925101 383.5276,2.88225101 384.0296,2.44425101 C384.5636,1.96925101 385.3246,1.73125101 386.3126,1.73125101 C386.8726,1.73125101 387.5776,1.87325101 388.4276,2.15625101" id="Fill-71" fill="#FFFFFF"></path>
                    <path d="M401.2147,7.84375101 L401.2147,3.02975101 C401.1237,3.00775101 400.8217,2.94675101 400.3097,2.84475101 C400.1447,2.81275101 400.0617,2.71375101 400.0617,2.54875101 L400.0617,1.85975101 L401.2147,1.85975101 L402.6407,1.85975101 L402.6407,8.80475101 C403.1587,8.90575101 403.4627,8.96775101 403.5537,8.98975101 C403.7197,9.02175101 403.8027,9.11975101 403.8027,9.28575101 L403.8027,9.97475101 L401.7917,9.97475101 C401.5887,9.97475101 401.4607,9.87575101 401.4067,9.67875101 L401.2947,8.80475101 C400.5157,9.66975101 399.6177,10.102751 398.6037,10.102751 C397.7377,10.102751 397.0627,9.82275101 396.5757,9.26175101 C396.1167,8.72775101 395.8877,7.98575101 395.8877,7.03375101 L395.8877,3.02975101 C395.3747,2.92775101 395.0697,2.86575101 394.9747,2.84475101 C394.8147,2.81275101 394.7347,2.71375101 394.7347,2.54875101 L394.7347,1.85975101 L397.3137,1.85975101 L397.3137,7.03375101 C397.3137,7.64875101 397.4547,8.12375101 397.7377,8.46075101 C398.0217,8.79675101 398.4477,8.96475101 399.0197,8.96475101 C399.8257,8.96475101 400.5577,8.59175101 401.2147,7.84375101" id="Fill-73" fill="#FFFFFF"></path>
                    <path d="M415.077,1.71575101 C415.493,1.71575101 415.864,1.81175101 416.19,2.00375101 L416.006,3.06975101 C415.969,3.20275101 415.899,3.26975101 415.798,3.26975101 C415.696,3.26975101 415.568,3.24375101 415.413,3.19375101 C415.259,3.14275101 415.042,3.11675101 414.765,3.11675101 C413.835,3.11675101 413.14,3.68075101 412.681,4.80775101 L412.681,8.80475101 C412.815,8.83175101 413.119,8.89375101 413.595,8.98875101 C413.755,9.02175101 413.835,9.11975101 413.835,9.28575101 L413.835,9.97475101 L410.102,9.97475101 L410.102,9.28575101 C410.102,9.11975101 410.182,9.02175101 410.343,8.98875101 L411.256,8.80475101 L411.256,3.02875101 C410.743,2.92775101 410.438,2.86575101 410.343,2.84475101 C410.182,2.81275101 410.102,2.71375101 410.102,2.54875101 L410.102,1.85975101 L411.256,1.85975101 L412.073,1.85975101 C412.227,1.85975101 412.335,1.88875101 412.393,1.94675101 C412.452,2.00675101 412.492,2.10875101 412.514,2.25175101 L412.609,3.51775101 C413.202,2.31675101 414.024,1.71575101 415.077,1.71575101" id="Fill-75" fill="#FFFFFF"></path>
                    <g id="Group-79" transform="translate(422.000000, 0.898451)">
                        <mask id="mask-4" fill="white">
                            <use xlink:href="#path-3"></use>
                        </mask>
                        <g id="Clip-78"></g>
                        <path d="M4.2899,4.9902 C4.5119,4.9102 4.6969,4.7982 4.8469,4.6542 C4.9969,4.5102 5.1079,4.3382 5.1839,4.1372 C5.2579,3.9372 5.2959,3.7172 5.2959,3.4762 C5.2959,2.9792 5.1439,2.5852 4.8429,2.2912 C4.5409,1.9972 4.1029,1.8502 3.5249,1.8502 C2.9539,1.8502 2.5179,1.9972 2.2159,2.2912 C1.9139,2.5852 1.7629,2.9792 1.7629,3.4762 C1.7629,3.7172 1.8019,3.9372 1.8789,4.1372 C1.9559,4.3382 2.0699,4.5102 2.2199,4.6542 C2.3689,4.7982 2.5539,4.9102 2.7719,4.9902 C2.9909,5.0702 3.2419,5.1102 3.5249,5.1102 C3.8129,5.1102 4.0679,5.0702 4.2899,4.9902 M5.8889,9.0282 C5.7759,8.9052 5.6239,8.8102 5.4319,8.7442 C5.2389,8.6772 5.0179,8.6282 4.7669,8.5952 C4.5159,8.5632 4.2519,8.5412 3.9739,8.5272 C3.6959,8.5132 3.4129,8.4992 3.1249,8.4832 C2.8359,8.4682 2.5609,8.4372 2.2999,8.3952 C1.9949,8.5392 1.7479,8.7162 1.5589,8.9242 C1.3689,9.1322 1.2739,9.3812 1.2739,9.6692 C1.2739,9.8502 1.3209,10.0202 1.4139,10.1772 C1.5079,10.3352 1.6499,10.4712 1.8429,10.5862 C2.0349,10.7012 2.2769,10.7922 2.5679,10.8582 C2.8589,10.9262 3.2019,10.9592 3.5979,10.9592 C3.9809,10.9592 4.3259,10.9242 4.6309,10.8542 C4.9359,10.7852 5.1929,10.6862 5.4039,10.5582 C5.6149,10.4292 5.7759,10.2772 5.8889,10.1012 C6.0009,9.9252 6.0569,9.7302 6.0569,9.5162 C6.0569,9.3132 6.0009,9.1512 5.8889,9.0282 M4.5149,0.9412 C4.8209,1.0182 5.1009,1.1322 5.3519,1.2812 L7.5549,1.2812 L7.5549,1.8102 C7.5549,1.9862 7.4419,2.0982 7.2189,2.1462 L6.2969,2.2752 C6.4779,2.6222 6.5689,3.0092 6.5689,3.4362 C6.5689,3.8322 6.4929,4.1902 6.3409,4.5132 C6.1879,4.8372 5.9769,5.1132 5.7079,5.3432 C5.4379,5.5722 5.1179,5.7492 4.7469,5.8722 C4.3759,5.9952 3.9689,6.0552 3.5249,6.0552 C3.1459,6.0552 2.7879,6.0112 2.4519,5.9202 C2.2809,6.0262 2.1509,6.1412 2.0629,6.2642 C1.9759,6.3862 1.9309,6.5072 1.9309,6.6252 C1.9309,6.8172 2.0089,6.9632 2.1629,7.0612 C2.3179,7.1602 2.5229,7.2312 2.7799,7.2732 C3.0359,7.3162 3.3279,7.3432 3.6529,7.3532 C3.9789,7.3642 4.3109,7.3822 4.6499,7.4062 C4.9899,7.4292 5.3219,7.4712 5.6479,7.5302 C5.9739,7.5892 6.2649,7.6842 6.5209,7.8182 C6.7769,7.9522 6.9829,8.1362 7.1379,8.3712 C7.2929,8.6062 7.3699,8.9102 7.3699,9.2842 C7.3699,9.6322 7.2829,9.9682 7.1099,10.2942 C6.9359,10.6192 6.6859,10.9092 6.3609,11.1632 C6.0349,11.4172 5.6379,11.6192 5.1679,11.7712 C4.6969,11.9242 4.1659,12.0002 3.5729,12.0002 C2.9799,12.0002 2.4609,11.9412 2.0159,11.8242 C1.5689,11.7062 1.1989,11.5492 0.9049,11.3512 C0.6119,11.1532 0.3919,10.9262 0.2449,10.6662 C0.0979,10.4072 0.0239,10.1362 0.0239,9.8532 C0.0239,9.4532 0.1509,9.1122 0.4049,8.8322 C0.6579,8.5522 1.0069,8.3282 1.4499,8.1632 C1.2209,8.0552 1.0379,7.9132 0.9009,7.7342 C0.7659,7.5552 0.6969,7.3162 0.6969,7.0172 C0.6969,6.8992 0.7189,6.7782 0.7619,6.6532 C0.8049,6.5272 0.8699,6.4032 0.9579,6.2802 C1.0459,6.1572 1.1539,6.0402 1.2819,5.9272 C1.4099,5.8152 1.5599,5.7172 1.7299,5.6322 C1.3299,5.4072 1.0169,5.1092 0.7889,4.7382 C0.5619,4.3672 0.4489,3.9332 0.4489,3.4362 C0.4489,3.0412 0.5249,2.6822 0.6779,2.3592 C0.8299,2.0362 1.0419,1.7612 1.3139,1.5342 C1.5869,1.3062 1.9109,1.1322 2.2869,1.0092 C2.6639,0.8862 3.0759,0.8252 3.5249,0.8252 C3.8779,0.8252 4.2079,0.8642 4.5149,0.9412" id="Fill-77" fill="#FFFFFF" mask="url(#mask-4)"></path>
                    </g>
                    <path d="M437.8231,3.37785101 C437.4281,3.77485101 437.1821,4.32685101 437.0871,5.03185101 L441.5011,5.03185101 C441.5011,4.70085101 441.4551,4.39785101 441.3641,4.12285101 C441.2731,3.84785101 441.1401,3.60985101 440.9641,3.40885101 C440.7881,3.20885101 440.5721,3.05485101 440.3191,2.94485101 C440.0651,2.83585101 439.7751,2.78085101 439.4501,2.78085101 C438.7601,2.78085101 438.2191,2.97985101 437.8231,3.37785101 M440.7631,1.97585101 C441.1751,2.13885101 441.5301,2.37385101 441.8291,2.68085101 C442.1281,2.98685101 442.3611,3.36685101 442.5301,3.81785101 C442.6981,4.26985101 442.7821,4.78285101 442.7821,5.35985101 C442.7821,5.58485101 442.7591,5.73385101 442.7101,5.80885101 C442.6621,5.88385101 442.5711,5.92085101 442.4371,5.92085101 L437.0391,5.92085101 C437.0491,6.43385101 437.1191,6.87985101 437.2471,7.25885101 C437.3751,7.63785101 437.5521,7.95385101 437.7751,8.20785101 C438.0001,8.46185101 438.2661,8.65085101 438.5771,8.77685101 C438.8861,8.90185101 439.2331,8.96485101 439.6181,8.96485101 C439.9751,8.96485101 440.2841,8.92385101 440.5431,8.84085101 C440.8021,8.75785101 441.0251,8.66885101 441.2121,8.57185101 C441.3991,8.47685101 441.5551,8.38685101 441.6801,8.30485101 C441.8061,8.22185101 441.9141,8.17985101 442.0051,8.17985101 C442.1231,8.17985101 442.2141,8.22585101 442.2771,8.31585101 L442.6771,8.83685101 C442.5021,9.05085101 442.2911,9.23585101 442.0451,9.39385101 C441.8001,9.55185101 441.5371,9.68085101 441.2561,9.78185101 C440.9751,9.88385101 440.6861,9.95985101 440.3861,10.010851 C440.0881,10.061851 439.7921,10.086851 439.4981,10.086851 C438.9371,10.086851 438.4211,9.99185101 437.9481,9.80285101 C437.4751,9.61185101 437.0661,9.33485101 436.7211,8.96885101 C436.3781,8.60385101 436.1091,8.14985101 435.9171,7.61085101 C435.7241,7.07185101 435.6291,6.45185101 435.6291,5.75285101 C435.6291,5.18685101 435.7161,4.65785101 435.8881,4.16685101 C436.0621,3.67585101 436.3121,3.24885101 436.6371,2.88885101 C436.9641,2.52785101 437.3611,2.24485101 437.8321,2.03985101 C438.3021,1.83385101 438.8301,1.73185101 439.4181,1.73185101 C439.9031,1.73185101 440.3521,1.81285101 440.7631,1.97585101" id="Fill-80" fill="#FFFFFF"></path>
                    <path d="M454.0253,1.71575101 C454.4413,1.71575101 454.8123,1.81175101 455.1383,2.00375101 L454.9543,3.06975101 C454.9173,3.20275101 454.8473,3.26975101 454.7463,3.26975101 C454.6443,3.26975101 454.5163,3.24375101 454.3613,3.19375101 C454.2073,3.14275101 453.9903,3.11675101 453.7133,3.11675101 C452.7833,3.11675101 452.0883,3.68075101 451.6293,4.80775101 L451.6293,8.80475101 C451.7633,8.83175101 452.0673,8.89375101 452.5433,8.98875101 C452.7033,9.02175101 452.7833,9.11975101 452.7833,9.28575101 L452.7833,9.97475101 L449.0503,9.97475101 L449.0503,9.28575101 C449.0503,9.11975101 449.1303,9.02175101 449.2913,8.98875101 L450.2043,8.80475101 L450.2043,3.02875101 C449.6913,2.92775101 449.3863,2.86575101 449.2913,2.84475101 C449.1303,2.81275101 449.0503,2.71375101 449.0503,2.54875101 L449.0503,1.85975101 L450.2043,1.85975101 L451.0213,1.85975101 C451.1753,1.85975101 451.2833,1.88875101 451.3413,1.94675101 C451.4003,2.00675101 451.4403,2.10875101 451.4623,2.25175101 L451.5573,3.51775101 C452.1503,2.31675101 452.9723,1.71575101 454.0253,1.71575101" id="Fill-82" fill="#FFFFFF"></path>
                    <path d="M470.0165,1.85935101 L470.0165,2.54835101 C470.0165,2.71335101 469.9365,2.81235101 469.7765,2.84435101 C469.7285,2.85535101 469.5865,2.88435101 469.3525,2.93235101 C469.1175,2.98135101 468.9785,3.00735101 468.9355,3.01235101 L464.9065,12.370351 C464.7985,12.604351 464.6275,12.722351 464.3935,12.722351 L463.3355,12.722351 L464.8185,9.50235101 L461.9655,2.98935101 C461.5765,2.91435101 461.3325,2.86635101 461.2375,2.84435101 C461.0775,2.81235101 460.9965,2.71335101 460.9965,2.54835101 L460.9965,1.85935101 L464.6335,1.85935101 L464.6335,2.54835101 C464.6335,2.71335101 464.5535,2.81235101 464.3935,2.84435101 C464.3075,2.86635101 464.0145,2.92435101 463.5115,3.02135101 L465.3145,7.26635101 C465.4005,7.48035101 465.4725,7.71735101 465.5315,7.97935101 C465.6265,7.66535101 465.7065,7.42435101 465.7715,7.25835101 L467.5255,3.02135101 C467.0925,2.93535101 466.8005,2.87735101 466.6485,2.84435101 C466.4955,2.81235101 466.4195,2.71335101 466.4195,2.54835101 L466.4195,1.85935101 L469.4325,1.85935101 L470.0165,1.85935101 Z" id="Fill-84" fill="#FFFFFF"></path>
                </g>
                <g id="Group-2" transform="translate(0.000000, 3.000000)">
                    <polygon id="Fill-86" fill="#FFFFFF" points="0.819 65.103451 64.946 65.103451 64.946 0.976451013 0.819 0.976451013"></polygon>
                    <path d="M74.4452,33.039551 C74.4452,27.805551 70.2022,23.561551 64.9672,23.561551 C59.7332,23.561551 55.4892,27.805551 55.4892,33.039551 C55.4892,38.274551 59.7332,42.517551 64.9672,42.517551 C70.2022,42.517551 74.4452,38.274551 74.4452,33.039551" id="Fill-88" fill="#FFFFFF"></path>
                    <path d="M50.3622,33.039551 L57.7302,33.039551 C57.7302,29.055551 60.9602,25.826551 64.9442,25.826551 L64.9442,18.456551 C56.8902,18.456551 50.3622,24.985551 50.3622,33.039551" id="Fill-89" fill="#FFFFFF"></path>
                    <path d="M57.7303,33.039551 L50.3623,33.039551 C50.3623,41.093551 56.8903,47.622551 64.9443,47.622551 L64.9443,40.253551 C60.9593,40.253551 57.7303,37.023551 57.7303,33.039551" id="Fill-90" fill="#FFFFFF"></path>
                    <path d="M79.5272,33.039551 L72.1582,33.039551 C72.1582,37.023551 68.9282,40.253551 64.9442,40.253551 L64.9442,47.622551 C72.9982,47.622551 79.5272,41.093551 79.5272,33.039551" id="Fill-91" fill="#FFFFFF"></path>
                    <path d="M72.1581,33.039551 L79.5271,33.039551 C79.5271,24.985551 72.9981,18.456551 64.9441,18.456551 L64.9441,25.826551 C68.9291,25.826551 72.1581,29.055551 72.1581,33.039551" id="Fill-92" fill="#FFFFFF"></path>
                    <path d="M0.819,2.03645101 L64.944,2.03645101 L64.944,0.975451013 L0.819,0.975451013 L0.819,2.03645101 Z M0.819,6.88845101 L64.944,6.88845101 L64.944,5.82745101 L0.819,5.82745101 L0.819,6.88845101 Z M0.819,21.441451 L64.944,21.441451 L64.944,20.380451 L0.819,20.380451 L0.819,21.441451 Z M0.819,11.739451 L64.944,11.739451 L64.944,10.678451 L0.819,10.678451 L0.819,11.739451 Z M0.819,16.590451 L64.944,16.590451 L64.944,15.529451 L0.819,15.529451 L0.819,16.590451 Z M0.819,65.103451 L64.944,65.103451 L64.944,64.042451 L0.819,64.042451 L0.819,65.103451 Z M0.819,60.251451 L64.944,60.251451 L64.944,59.190451 L0.819,59.190451 L0.819,60.251451 Z M0.819,50.549451 L64.944,50.549451 L64.944,49.488451 L0.819,49.488451 L0.819,50.549451 Z M0.819,45.698451 L64.944,45.698451 L64.944,44.637451 L0.819,44.637451 L0.819,45.698451 Z M0.819,55.400451 L64.944,55.400451 L64.944,54.339451 L0.819,54.339451 L0.819,55.400451 Z M0.819,40.846451 L41.582,40.846451 L41.582,39.785451 L0.819,39.785451 L0.819,40.846451 Z M0.819,31.144451 L41.582,31.144451 L41.582,30.083451 L0.819,30.083451 L0.819,31.144451 Z M0.819,35.995451 L41.582,35.995451 L41.582,34.934451 L0.819,34.934451 L0.819,35.995451 Z M0.819,26.293451 L41.582,26.293451 L41.582,25.232451 L0.819,25.232451 L0.819,26.293451 Z" id="Fill-93" fill="#FFFFFF"></path>
                    <path d="M64.9677,54.514551 L64.9677,65.102551 L0.8197,65.102551 L0.8197,14.357551 C0.8197,25.963551 23.2967,54.264551 64.9677,54.514551" id="Fill-94" fill="#FFFFFF"></path>
                    <path d="M42.7264,31.144451 C44.8884,27.458451 52.5214,21.947451 64.9464,21.947451 C77.3714,21.947451 85.0034,27.458451 87.1654,31.144451 L100.5754,31.144451 C98.1454,25.399451 85.8384,15.529451 64.9464,15.529451 C44.0534,15.529451 31.7474,25.399451 29.3174,31.144451 L42.7264,31.144451 Z" id="Fill-95" fill="#FFFFFF"></path>
                    <path d="M100.5751,34.935051 C98.1451,40.680051 85.8391,50.549051 64.9461,50.549051 C44.0541,50.549051 31.7471,40.680051 29.3171,34.935051 L42.7261,34.935051 C44.8881,38.621051 52.5211,44.132051 64.9461,44.132051 C77.3711,44.132051 85.0041,38.621051 87.1661,34.935051 L100.5751,34.935051 Z" id="Fill-96" fill="#FFFFFF"></path>
                </g>
                <polygon id="Fill-97" fill="#FFFFFF" points="0.7072 82.145451 472 82.145451 472 81.057451 0.7072 81.057451"></polygon>
            </g>
        </g>
    </g>
</svg>